<svg width="607" height="107" viewBox="0 0 607 107" fill="none" xmlns="http://www.w3.org/2000/svg">
<path d="M29.2614 24C28.8707 22.8045 28.3558 21.7332 27.7166 20.7862C27.0893 19.8274 26.3376 19.0107 25.4616 18.3359C24.5975 17.6612 23.6151 17.1463 22.5142 16.7912C21.4134 16.4361 20.206 16.2585 18.892 16.2585C16.7377 16.2585 14.7786 16.8149 13.0149 17.9276C11.2512 19.0402 9.84849 20.6797 8.80682 22.8459C7.76515 25.0121 7.24432 27.6695 7.24432 30.8182C7.24432 33.9669 7.77107 36.6243 8.82457 38.7905C9.87808 40.9567 11.3045 42.5961 13.1037 43.7088C14.9029 44.8215 16.9271 45.3778 19.1761 45.3778C21.2595 45.3778 23.0942 44.9339 24.6804 44.0462C26.2784 43.1465 27.5213 41.88 28.4091 40.2464C29.3087 38.6011 29.7585 36.6657 29.7585 34.4403L31.108 34.7244H20.1705V30.8182H34.0199V34.7244C34.0199 37.7192 33.3807 40.3234 32.1023 42.5369C30.8357 44.7505 29.0838 46.4669 26.8466 47.6861C24.6212 48.8935 22.0644 49.4972 19.1761 49.4972C15.9564 49.4972 13.1274 48.7396 10.6889 47.2244C8.26231 45.7093 6.36837 43.5549 5.0071 40.7614C3.65767 37.9678 2.98295 34.6534 2.98295 30.8182C2.98295 27.9418 3.36766 25.3553 4.13707 23.0589C4.91832 20.7507 6.01918 18.7857 7.43963 17.1641C8.86009 15.5424 10.541 14.2995 12.4822 13.4354C14.4235 12.5713 16.5601 12.1392 18.892 12.1392C20.8097 12.1392 22.5971 12.4292 24.2543 13.0092C25.9233 13.5774 27.4089 14.3883 28.7109 15.4418C30.0249 16.4834 31.1198 17.7322 31.9957 19.1882C32.8717 20.6323 33.4754 22.2363 33.8068 24H29.2614ZM52.073 49.5682C49.6109 49.5682 47.4506 48.9822 45.5922 47.8104C43.7456 46.6385 42.3014 44.9991 41.2598 42.892C40.2299 40.785 39.715 38.3229 39.715 35.5057C39.715 32.6648 40.2299 30.1849 41.2598 28.0661C42.3014 25.9472 43.7456 24.3018 45.5922 23.13C47.4506 21.9581 49.6109 21.3722 52.073 21.3722C54.5351 21.3722 56.6895 21.9581 58.536 23.13C60.3945 24.3018 61.8386 25.9472 62.8684 28.0661C63.9101 30.1849 64.4309 32.6648 64.4309 35.5057C64.4309 38.3229 63.9101 40.785 62.8684 42.892C61.8386 44.9991 60.3945 46.6385 58.536 47.8104C56.6895 48.9822 54.5351 49.5682 52.073 49.5682ZM52.073 45.804C53.9432 45.804 55.4821 45.3246 56.6895 44.3658C57.8968 43.407 58.7905 42.1463 59.3706 40.5838C59.9506 39.0213 60.2406 37.3286 60.2406 35.5057C60.2406 33.6828 59.9506 31.9841 59.3706 30.4098C58.7905 28.8355 57.8968 27.563 56.6895 26.5923C55.4821 25.6217 53.9432 25.1364 52.073 25.1364C50.2027 25.1364 48.6639 25.6217 47.4565 26.5923C46.2491 27.563 45.3554 28.8355 44.7754 30.4098C44.1954 31.9841 43.9054 33.6828 43.9054 35.5057C43.9054 37.3286 44.1954 39.0213 44.7754 40.5838C45.3554 42.1463 46.2491 43.407 47.4565 44.3658C48.6639 45.3246 50.2027 45.804 52.073 45.804ZM81.907 49.5682C79.4448 49.5682 77.2846 48.9822 75.4261 47.8104C73.5795 46.6385 72.1354 44.9991 71.0938 42.892C70.0639 40.785 69.549 38.3229 69.549 35.5057C69.549 32.6648 70.0639 30.1849 71.0938 28.0661C72.1354 25.9472 73.5795 24.3018 75.4261 23.13C77.2846 21.9581 79.4448 21.3722 81.907 21.3722C84.3691 21.3722 86.5234 21.9581 88.37 23.13C90.2285 24.3018 91.6726 25.9472 92.7024 28.0661C93.7441 30.1849 94.2649 32.6648 94.2649 35.5057C94.2649 38.3229 93.7441 40.785 92.7024 42.892C91.6726 44.9991 90.2285 46.6385 88.37 47.8104C86.5234 48.9822 84.3691 49.5682 81.907 49.5682ZM81.907 45.804C83.7772 45.804 85.3161 45.3246 86.5234 44.3658C87.7308 43.407 88.6245 42.1463 89.2045 40.5838C89.7846 39.0213 90.0746 37.3286 90.0746 35.5057C90.0746 33.6828 89.7846 31.9841 89.2045 30.4098C88.6245 28.8355 87.7308 27.563 86.5234 26.5923C85.3161 25.6217 83.7772 25.1364 81.907 25.1364C80.0367 25.1364 78.4979 25.6217 77.2905 26.5923C76.0831 27.563 75.1894 28.8355 74.6094 30.4098C74.0294 31.9841 73.7393 33.6828 73.7393 35.5057C73.7393 37.3286 74.0294 39.0213 74.6094 40.5838C75.1894 42.1463 76.0831 43.407 77.2905 44.3658C78.4979 45.3246 80.0367 45.804 81.907 45.804ZM111.67 59.7955C109.646 59.7955 107.906 59.535 106.45 59.0142C104.994 58.5052 103.78 57.8305 102.81 56.9901C101.851 56.1615 101.088 55.2737 100.519 54.3267L103.857 51.983C104.236 52.4801 104.716 53.0483 105.296 53.6875C105.876 54.3385 106.669 54.9008 107.675 55.3743C108.693 55.8596 110.025 56.1023 111.67 56.1023C113.872 56.1023 115.689 55.5696 117.121 54.5043C118.553 53.4389 119.269 51.7699 119.269 49.4972V43.9574H118.914C118.606 44.4545 118.169 45.0701 117.6 45.804C117.044 46.526 116.239 47.1712 115.186 47.7393C114.144 48.2957 112.735 48.5739 110.96 48.5739C108.758 48.5739 106.781 48.053 105.029 47.0114C103.289 45.9697 101.91 44.4545 100.892 42.4659C99.8861 40.4773 99.383 38.0625 99.383 35.2216C99.383 32.428 99.8742 29.9955 100.857 27.924C101.839 25.8407 103.206 24.2308 104.958 23.0945C106.71 21.9463 108.734 21.3722 111.031 21.3722C112.806 21.3722 114.215 21.6681 115.257 22.2599C116.31 22.84 117.115 23.5028 117.671 24.2486C118.24 24.9825 118.677 25.5862 118.985 26.0597H119.411V21.7273H123.46V49.7812C123.46 52.125 122.927 54.0308 121.862 55.4986C120.808 56.9782 119.388 58.0613 117.6 58.7479C115.825 59.4463 113.848 59.7955 111.67 59.7955ZM111.528 44.8097C113.209 44.8097 114.629 44.425 115.789 43.6555C116.949 42.8861 117.831 41.7794 118.435 40.3352C119.039 38.8911 119.34 37.1629 119.34 35.1506C119.34 33.1856 119.044 31.4515 118.453 29.9482C117.861 28.4448 116.985 27.267 115.825 26.4148C114.665 25.5625 113.232 25.1364 111.528 25.1364C109.752 25.1364 108.273 25.5862 107.089 26.4858C105.917 27.3854 105.035 28.5928 104.443 30.108C103.863 31.6231 103.573 33.304 103.573 35.1506C103.573 37.0445 103.869 38.7195 104.461 40.1754C105.065 41.6196 105.953 42.7559 107.124 43.5845C108.308 44.4013 109.776 44.8097 111.528 44.8097ZM135.32 12.6364V49H131.13V12.6364H135.32ZM154.43 49.5682C151.802 49.5682 149.535 48.9882 147.63 47.8281C145.736 46.6562 144.274 45.0227 143.244 42.9276C142.226 40.8205 141.717 38.3703 141.717 35.5767C141.717 32.7831 142.226 30.321 143.244 28.1903C144.274 26.0478 145.706 24.3788 147.541 23.1832C149.387 21.9759 151.542 21.3722 154.004 21.3722C155.424 21.3722 156.827 21.6089 158.212 22.0824C159.597 22.5559 160.858 23.3253 161.994 24.3906C163.13 25.4441 164.036 26.8409 164.711 28.581C165.385 30.321 165.723 32.4635 165.723 35.0085V36.7841H144.7V33.1619H161.461C161.461 31.6231 161.154 30.25 160.538 29.0426C159.934 27.8352 159.07 26.8823 157.946 26.1839C156.833 25.4856 155.519 25.1364 154.004 25.1364C152.335 25.1364 150.891 25.5507 149.672 26.3793C148.464 27.196 147.535 28.2614 146.884 29.5753C146.233 30.8892 145.907 32.2978 145.907 33.8011V36.2159C145.907 38.2756 146.262 40.0215 146.973 41.4538C147.695 42.8743 148.695 43.9574 149.973 44.7031C151.252 45.437 152.737 45.804 154.43 45.804C155.531 45.804 156.525 45.6501 157.413 45.3423C158.313 45.0227 159.088 44.5492 159.739 43.9219C160.39 43.2827 160.893 42.4896 161.248 41.5426L165.297 42.679C164.87 44.0521 164.154 45.2595 163.148 46.3011C162.142 47.331 160.899 48.1359 159.419 48.7159C157.94 49.2841 156.277 49.5682 154.43 49.5682ZM197.949 49H186.728V12.6364H198.446C201.974 12.6364 204.992 13.3643 207.502 14.8203C210.011 16.2644 211.935 18.3419 213.272 21.0526C214.61 23.7514 215.279 26.983 215.279 30.7472C215.279 34.535 214.604 37.7962 213.255 40.5305C211.905 43.2531 209.94 45.3482 207.36 46.8161C204.779 48.272 201.642 49 197.949 49ZM191.131 45.0938H197.665C200.672 45.0938 203.163 44.5137 205.14 43.3537C207.117 42.1937 208.591 40.5424 209.561 38.3999C210.532 36.2573 211.017 33.7064 211.017 30.7472C211.017 27.8116 210.538 25.2843 209.579 23.1655C208.62 21.0348 207.188 19.4013 205.282 18.2649C203.377 17.1167 201.003 16.5426 198.162 16.5426H191.131V45.0938ZM233.532 49.5682C230.904 49.5682 228.637 48.9882 226.731 47.8281C224.837 46.6562 223.375 45.0227 222.346 42.9276C221.328 40.8205 220.819 38.3703 220.819 35.5767C220.819 32.7831 221.328 30.321 222.346 28.1903C223.375 26.0478 224.808 24.3788 226.642 23.1832C228.489 21.9759 230.643 21.3722 233.105 21.3722C234.526 21.3722 235.929 21.6089 237.314 22.0824C238.699 22.5559 239.959 23.3253 241.096 24.3906C242.232 25.4441 243.137 26.8409 243.812 28.581C244.487 30.321 244.824 32.4635 244.824 35.0085V36.7841H223.801V33.1619H240.563C240.563 31.6231 240.255 30.25 239.64 29.0426C239.036 27.8352 238.172 26.8823 237.047 26.1839C235.935 25.4856 234.621 25.1364 233.105 25.1364C231.436 25.1364 229.992 25.5507 228.773 26.3793C227.566 27.196 226.636 28.2614 225.985 29.5753C225.334 30.8892 225.009 32.2978 225.009 33.8011V36.2159C225.009 38.2756 225.364 40.0215 226.074 41.4538C226.796 42.8743 227.797 43.9574 229.075 44.7031C230.353 45.437 231.839 45.804 233.532 45.804C234.632 45.804 235.627 45.6501 236.515 45.3423C237.414 45.0227 238.19 44.5492 238.841 43.9219C239.492 43.2827 239.995 42.4896 240.35 41.5426L244.398 42.679C243.972 44.0521 243.256 45.2595 242.25 46.3011C241.243 47.331 240.001 48.1359 238.521 48.7159C237.041 49.2841 235.378 49.5682 233.532 49.5682ZM272.67 21.7273L262.584 49H258.323L248.238 21.7273H252.783L260.312 43.4602H260.596L268.124 21.7273H272.67ZM288.659 49.5682C286.031 49.5682 283.764 48.9882 281.858 47.8281C279.964 46.6562 278.502 45.0227 277.472 42.9276C276.454 40.8205 275.945 38.3703 275.945 35.5767C275.945 32.7831 276.454 30.321 277.472 28.1903C278.502 26.0478 279.935 24.3788 281.769 23.1832C283.616 21.9759 285.77 21.3722 288.232 21.3722C289.653 21.3722 291.056 21.6089 292.441 22.0824C293.825 22.5559 295.086 23.3253 296.222 24.3906C297.359 25.4441 298.264 26.8409 298.939 28.581C299.614 30.321 299.951 32.4635 299.951 35.0085V36.7841H278.928V33.1619H295.69C295.69 31.6231 295.382 30.25 294.767 29.0426C294.163 27.8352 293.299 26.8823 292.174 26.1839C291.061 25.4856 289.748 25.1364 288.232 25.1364C286.563 25.1364 285.119 25.5507 283.9 26.3793C282.693 27.196 281.763 28.2614 281.112 29.5753C280.461 30.8892 280.136 32.2978 280.136 33.8011V36.2159C280.136 38.2756 280.491 40.0215 281.201 41.4538C281.923 42.8743 282.923 43.9574 284.202 44.7031C285.48 45.437 286.966 45.804 288.659 45.804C289.759 45.804 290.754 45.6501 291.642 45.3423C292.541 45.0227 293.316 44.5492 293.968 43.9219C294.619 43.2827 295.122 42.4896 295.477 41.5426L299.525 42.679C299.099 44.0521 298.383 45.2595 297.377 46.3011C296.37 47.331 295.128 48.1359 293.648 48.7159C292.168 49.2841 290.505 49.5682 288.659 49.5682ZM310.516 12.6364V49H306.325V12.6364H310.516ZM329.27 49.5682C326.808 49.5682 324.648 48.9822 322.789 47.8104C320.943 46.6385 319.499 44.9991 318.457 42.892C317.427 40.785 316.912 38.3229 316.912 35.5057C316.912 32.6648 317.427 30.1849 318.457 28.0661C319.499 25.9472 320.943 24.3018 322.789 23.13C324.648 21.9581 326.808 21.3722 329.27 21.3722C331.732 21.3722 333.887 21.9581 335.733 23.13C337.592 24.3018 339.036 25.9472 340.066 28.0661C341.107 30.1849 341.628 32.6648 341.628 35.5057C341.628 38.3229 341.107 40.785 340.066 42.892C339.036 44.9991 337.592 46.6385 335.733 47.8104C333.887 48.9822 331.732 49.5682 329.27 49.5682ZM329.27 45.804C331.141 45.804 332.679 45.3246 333.887 44.3658C335.094 43.407 335.988 42.1463 336.568 40.5838C337.148 39.0213 337.438 37.3286 337.438 35.5057C337.438 33.6828 337.148 31.9841 336.568 30.4098C335.988 28.8355 335.094 27.563 333.887 26.5923C332.679 25.6217 331.141 25.1364 329.27 25.1364C327.4 25.1364 325.861 25.6217 324.654 26.5923C323.446 27.563 322.553 28.8355 321.973 30.4098C321.393 31.9841 321.103 33.6828 321.103 35.5057C321.103 37.3286 321.393 39.0213 321.973 40.5838C322.553 42.1463 323.446 43.407 324.654 44.3658C325.861 45.3246 327.4 45.804 329.27 45.804ZM348.025 59.2273V21.7273H352.073V26.0597H352.57C352.878 25.5862 353.304 24.9825 353.849 24.2486C354.405 23.5028 355.198 22.84 356.228 22.2599C357.269 21.6681 358.678 21.3722 360.454 21.3722C362.75 21.3722 364.774 21.9463 366.526 23.0945C368.278 24.2427 369.645 25.8703 370.628 27.9773C371.61 30.0843 372.101 32.5701 372.101 35.4347C372.101 38.3229 371.61 40.8265 370.628 42.9453C369.645 45.0523 368.284 46.6858 366.544 47.8459C364.804 48.9941 362.797 49.5682 360.525 49.5682C358.773 49.5682 357.37 49.2782 356.317 48.6982C355.263 48.1063 354.452 47.4375 353.884 46.6918C353.316 45.9342 352.878 45.3068 352.57 44.8097H352.215V59.2273H348.025ZM352.144 35.3636C352.144 37.4233 352.446 39.2403 353.05 40.8146C353.653 42.3771 354.535 43.6023 355.695 44.4901C356.855 45.366 358.276 45.804 359.956 45.804C361.708 45.804 363.17 45.3423 364.342 44.419C365.526 43.4839 366.414 42.2292 367.006 40.6548C367.609 39.0687 367.911 37.3049 367.911 35.3636C367.911 33.446 367.615 31.7178 367.023 30.179C366.443 28.6283 365.561 27.4032 364.378 26.5036C363.206 25.5921 361.732 25.1364 359.956 25.1364C358.252 25.1364 356.82 25.5684 355.66 26.4325C354.5 27.2848 353.624 28.4804 353.032 30.0192C352.44 31.5462 352.144 33.3277 352.144 35.3636ZM389.928 49.5682C387.3 49.5682 385.033 48.9882 383.128 47.8281C381.234 46.6562 379.772 45.0227 378.742 42.9276C377.724 40.8205 377.215 38.3703 377.215 35.5767C377.215 32.7831 377.724 30.321 378.742 28.1903C379.772 26.0478 381.204 24.3788 383.039 23.1832C384.885 21.9759 387.04 21.3722 389.502 21.3722C390.922 21.3722 392.325 21.6089 393.71 22.0824C395.095 22.5559 396.356 23.3253 397.492 24.3906C398.628 25.4441 399.534 26.8409 400.209 28.581C400.883 30.321 401.221 32.4635 401.221 35.0085V36.7841H380.198V33.1619H396.959C396.959 31.6231 396.652 30.25 396.036 29.0426C395.432 27.8352 394.568 26.8823 393.444 26.1839C392.331 25.4856 391.017 25.1364 389.502 25.1364C387.833 25.1364 386.389 25.5507 385.17 26.3793C383.962 27.196 383.033 28.2614 382.382 29.5753C381.731 30.8892 381.405 32.2978 381.405 33.8011V36.2159C381.405 38.2756 381.76 40.0215 382.471 41.4538C383.193 42.8743 384.193 43.9574 385.471 44.7031C386.75 45.437 388.235 45.804 389.928 45.804C391.029 45.804 392.023 45.6501 392.911 45.3423C393.811 45.0227 394.586 44.5492 395.237 43.9219C395.888 43.2827 396.391 42.4896 396.746 41.5426L400.795 42.679C400.368 44.0521 399.652 45.2595 398.646 46.3011C397.64 47.331 396.397 48.1359 394.917 48.7159C393.438 49.2841 391.775 49.5682 389.928 49.5682ZM407.595 49V21.7273H411.643V25.8466H411.927C412.425 24.4972 413.324 23.4022 414.626 22.5618C415.928 21.7214 417.396 21.3011 419.03 21.3011C419.337 21.3011 419.722 21.3071 420.184 21.3189C420.645 21.3307 420.995 21.3485 421.231 21.3722V25.6335C421.089 25.598 420.764 25.5447 420.255 25.4737C419.758 25.3909 419.231 25.3494 418.675 25.3494C417.349 25.3494 416.165 25.6276 415.123 26.1839C414.094 26.7285 413.277 27.486 412.673 28.4567C412.081 29.4155 411.785 30.5104 411.785 31.7415V49H407.595ZM465.687 24C465.297 22.8045 464.782 21.7332 464.142 20.7862C463.515 19.8274 462.763 19.0107 461.887 18.3359C461.023 17.6612 460.041 17.1463 458.94 16.7912C457.839 16.4361 456.632 16.2585 455.318 16.2585C453.163 16.2585 451.204 16.8149 449.441 17.9276C447.677 19.0402 446.274 20.6797 445.233 22.8459C444.191 25.0121 443.67 27.6695 443.67 30.8182C443.67 33.9669 444.197 36.6243 445.25 38.7905C446.304 40.9567 447.73 42.5961 449.529 43.7088C451.329 44.8215 453.353 45.3778 455.602 45.3778C457.685 45.3778 459.52 44.9339 461.106 44.0462C462.704 43.1465 463.947 41.88 464.835 40.2464C465.734 38.6011 466.184 36.6657 466.184 34.4403L467.534 34.7244H456.596V30.8182H470.446V34.7244C470.446 37.7192 469.806 40.3234 468.528 42.5369C467.261 44.7505 465.51 46.4669 463.272 47.6861C461.047 48.8935 458.49 49.4972 455.602 49.4972C452.382 49.4972 449.553 48.7396 447.115 47.2244C444.688 45.7093 442.794 43.5549 441.433 40.7614C440.083 37.9678 439.409 34.6534 439.409 30.8182C439.409 27.9418 439.793 25.3553 440.563 23.0589C441.344 20.7507 442.445 18.7857 443.865 17.1641C445.286 15.5424 446.967 14.2995 448.908 13.4354C450.849 12.5713 452.986 12.1392 455.318 12.1392C457.235 12.1392 459.023 12.4292 460.68 13.0092C462.349 13.5774 463.835 14.3883 465.137 15.4418C466.451 16.4834 467.546 17.7322 468.422 19.1882C469.297 20.6323 469.901 22.2363 470.233 24H465.687ZM477.419 49V21.7273H481.468V25.8466H481.752C482.249 24.4972 483.148 23.4022 484.45 22.5618C485.753 21.7214 487.22 21.3011 488.854 21.3011C489.162 21.3011 489.546 21.3071 490.008 21.3189C490.47 21.3307 490.819 21.3485 491.056 21.3722V25.6335C490.914 25.598 490.588 25.5447 490.079 25.4737C489.582 25.3909 489.055 25.3494 488.499 25.3494C487.173 25.3494 485.989 25.6276 484.948 26.1839C483.918 26.7285 483.101 27.486 482.497 28.4567C481.905 29.4155 481.61 30.5104 481.61 31.7415V49H477.419ZM506.272 49.5682C503.81 49.5682 501.65 48.9822 499.791 47.8104C497.945 46.6385 496.501 44.9991 495.459 42.892C494.429 40.785 493.914 38.3229 493.914 35.5057C493.914 32.6648 494.429 30.1849 495.459 28.0661C496.501 25.9472 497.945 24.3018 499.791 23.13C501.65 21.9581 503.81 21.3722 506.272 21.3722C508.734 21.3722 510.889 21.9581 512.735 23.13C514.594 24.3018 516.038 25.9472 517.068 28.0661C518.109 30.1849 518.63 32.6648 518.63 35.5057C518.63 38.3229 518.109 40.785 517.068 42.892C516.038 44.9991 514.594 46.6385 512.735 47.8104C510.889 48.9822 508.734 49.5682 506.272 49.5682ZM506.272 45.804C508.142 45.804 509.681 45.3246 510.889 44.3658C512.096 43.407 512.99 42.1463 513.57 40.5838C514.15 39.0213 514.44 37.3286 514.44 35.5057C514.44 33.6828 514.15 31.9841 513.57 30.4098C512.99 28.8355 512.096 27.563 510.889 26.5923C509.681 25.6217 508.142 25.1364 506.272 25.1364C504.402 25.1364 502.863 25.6217 501.656 26.5923C500.448 27.563 499.555 28.8355 498.975 30.4098C498.395 31.9841 498.105 33.6828 498.105 35.5057C498.105 37.3286 498.395 39.0213 498.975 40.5838C499.555 42.1463 500.448 43.407 501.656 44.3658C502.863 45.3246 504.402 45.804 506.272 45.804ZM542.214 37.8494V21.7273H546.404V49H542.214V44.3835H541.93C541.291 45.7685 540.297 46.9463 538.947 47.9169C537.598 48.8757 535.893 49.3551 533.833 49.3551C532.129 49.3551 530.614 48.9822 529.288 48.2365C527.962 47.4789 526.921 46.3426 526.163 44.8274C525.405 43.3004 525.027 41.3769 525.027 39.0568V21.7273H529.217V38.7727C529.217 40.7614 529.773 42.3475 530.886 43.5312C532.011 44.715 533.443 45.3068 535.183 45.3068C536.225 45.3068 537.284 45.0405 538.361 44.5078C539.45 43.9751 540.362 43.1584 541.096 42.0575C541.841 40.9567 542.214 39.554 542.214 37.8494ZM554.079 59.2273V21.7273H558.128V26.0597H558.625C558.933 25.5862 559.359 24.9825 559.903 24.2486C560.46 23.5028 561.253 22.84 562.282 22.2599C563.324 21.6681 564.733 21.3722 566.508 21.3722C568.805 21.3722 570.829 21.9463 572.581 23.0945C574.333 24.2427 575.7 25.8703 576.682 27.9773C577.665 30.0843 578.156 32.5701 578.156 35.4347C578.156 38.3229 577.665 40.8265 576.682 42.9453C575.7 45.0523 574.339 46.6858 572.599 47.8459C570.858 48.9941 568.852 49.5682 566.579 49.5682C564.827 49.5682 563.425 49.2782 562.371 48.6982C561.318 48.1063 560.507 47.4375 559.939 46.6918C559.371 45.9342 558.933 45.3068 558.625 44.8097H558.27V59.2273H554.079ZM558.199 35.3636C558.199 37.4233 558.501 39.2403 559.104 40.8146C559.708 42.3771 560.59 43.6023 561.75 44.4901C562.91 45.366 564.33 45.804 566.011 45.804C567.763 45.804 569.225 45.3423 570.397 44.419C571.581 43.4839 572.468 42.2292 573.06 40.6548C573.664 39.0687 573.966 37.3049 573.966 35.3636C573.966 33.446 573.67 31.7178 573.078 30.179C572.498 28.6283 571.616 27.4032 570.432 26.5036C569.26 25.5921 567.787 25.1364 566.011 25.1364C564.307 25.1364 562.874 25.5684 561.714 26.4325C560.554 27.2848 559.678 28.4804 559.086 30.0192C558.495 31.5462 558.199 33.3277 558.199 35.3636ZM603.866 27.8352L600.102 28.9006C599.865 28.2732 599.516 27.6636 599.055 27.0717C598.605 26.468 597.989 25.9709 597.208 25.5803C596.427 25.1896 595.426 24.9943 594.207 24.9943C592.538 24.9943 591.147 25.379 590.035 26.1484C588.934 26.906 588.383 27.8707 588.383 29.0426C588.383 30.0843 588.762 30.907 589.52 31.5107C590.277 32.1143 591.461 32.6174 593.071 33.0199L597.119 34.0142C599.558 34.6061 601.375 35.5116 602.57 36.7308C603.766 37.9382 604.363 39.4948 604.363 41.4006C604.363 42.9631 603.914 44.3598 603.014 45.5909C602.126 46.822 600.883 47.7926 599.285 48.5028C597.687 49.2131 595.829 49.5682 593.71 49.5682C590.928 49.5682 588.626 48.9645 586.803 47.7571C584.98 46.5497 583.826 44.786 583.341 42.4659L587.318 41.4716C587.697 42.9394 588.413 44.0402 589.466 44.7741C590.532 45.508 591.923 45.875 593.639 45.875C595.592 45.875 597.143 45.4607 598.291 44.6321C599.451 43.7917 600.031 42.7855 600.031 41.6136C600.031 40.6667 599.7 39.8736 599.037 39.2344C598.374 38.5833 597.356 38.098 595.983 37.7784L591.437 36.7131C588.94 36.1212 587.105 35.2038 585.933 33.9609C584.773 32.7062 584.193 31.1378 584.193 29.2557C584.193 27.7169 584.625 26.3556 585.489 25.1719C586.365 23.9882 587.555 23.0589 589.058 22.3842C590.573 21.7095 592.29 21.3722 594.207 21.3722C596.906 21.3722 599.025 21.964 600.564 23.1477C602.114 24.3314 603.215 25.8939 603.866 27.8352Z" fill="black"/>
<path d="M21.0511 89.0909C21.0511 91.392 20.6357 93.3807 19.8047 95.0568C18.9737 96.733 17.8338 98.0256 16.3849 98.9347C14.9361 99.8438 13.2813 100.298 11.4205 100.298C9.55966 100.298 7.90483 99.8438 6.45597 98.9347C5.0071 98.0256 3.86719 96.733 3.03622 95.0568C2.20526 93.3807 1.78977 91.392 1.78977 89.0909C1.78977 86.7898 2.20526 84.8011 3.03622 83.125C3.86719 81.4489 5.0071 80.1562 6.45597 79.2472C7.90483 78.3381 9.55966 77.8835 11.4205 77.8835C13.2813 77.8835 14.9361 78.3381 16.3849 79.2472C17.8338 80.1562 18.9737 81.4489 19.8047 83.125C20.6357 84.8011 21.0511 86.7898 21.0511 89.0909ZM18.4943 89.0909C18.4943 87.2017 18.1783 85.6072 17.5462 84.3075C16.9212 83.0078 16.0724 82.0241 15 81.3565C13.9347 80.6889 12.7415 80.3551 11.4205 80.3551C10.0994 80.3551 8.9027 80.6889 7.83026 81.3565C6.76491 82.0241 5.91619 83.0078 5.28409 84.3075C4.65909 85.6072 4.34659 87.2017 4.34659 89.0909C4.34659 90.9801 4.65909 92.5746 5.28409 93.8743C5.91619 95.174 6.76491 96.1577 7.83026 96.8253C8.9027 97.4929 10.0994 97.8267 11.4205 97.8267C12.7415 97.8267 13.9347 97.4929 15 96.8253C16.0724 96.1577 16.9212 95.174 17.5462 93.8743C18.1783 92.5746 18.4943 90.9801 18.4943 89.0909ZM27.6669 90.1562V100H25.1527V83.6364H27.5817V86.1932H27.7947C28.1783 85.3622 28.7607 84.6946 29.5419 84.1903C30.3232 83.679 31.3317 83.4233 32.5675 83.4233C33.6754 83.4233 34.6449 83.6506 35.4759 84.1051C36.3068 84.5526 36.9531 85.2344 37.4148 86.1506C37.8764 87.0597 38.1072 88.2102 38.1072 89.6023V100H35.593V89.7727C35.593 88.4872 35.2592 87.4858 34.5916 86.7685C33.924 86.044 33.0078 85.6818 31.843 85.6818C31.0405 85.6818 30.3232 85.8558 29.6911 86.2038C29.0661 86.5518 28.5724 87.0597 28.2102 87.7273C27.848 88.3949 27.6669 89.2045 27.6669 90.1562ZM69.0368 85H66.3947C66.2385 84.2401 65.965 83.5724 65.5744 82.9972C65.1909 82.4219 64.7221 81.9389 64.1681 81.5483C63.6213 81.1506 63.014 80.8523 62.3464 80.6534C61.6788 80.4545 60.9828 80.3551 60.2583 80.3551C58.9373 80.3551 57.7406 80.6889 56.6681 81.3565C55.6028 82.0241 54.7541 83.0078 54.122 84.3075C53.497 85.6072 53.1845 87.2017 53.1845 89.0909C53.1845 90.9801 53.497 92.5746 54.122 93.8743C54.7541 95.174 55.6028 96.1577 56.6681 96.8253C57.7406 97.4929 58.9373 97.8267 60.2583 97.8267C60.9828 97.8267 61.6788 97.7273 62.3464 97.5284C63.014 97.3295 63.6213 97.0348 64.1681 96.6442C64.7221 96.2464 65.1909 95.7599 65.5744 95.1847C65.965 94.6023 66.2385 93.9347 66.3947 93.1818H69.0368C68.8379 94.2969 68.4757 95.2947 67.9501 96.1754C67.4245 97.0561 66.7711 97.8054 65.9899 98.4233C65.2086 99.0341 64.3315 99.4993 63.3585 99.8189C62.3926 100.138 61.3592 100.298 60.2583 100.298C58.3976 100.298 56.7427 99.8438 55.2939 98.9347C53.845 98.0256 52.7051 96.733 51.8741 95.0568C51.0431 93.3807 50.6277 91.392 50.6277 89.0909C50.6277 86.7898 51.0431 84.8011 51.8741 83.125C52.7051 81.4489 53.845 80.1562 55.2939 79.2472C56.7427 78.3381 58.3976 77.8835 60.2583 77.8835C61.3592 77.8835 62.3926 78.0433 63.3585 78.3629C64.3315 78.6825 65.2086 79.1513 65.9899 79.7692C66.7711 80.38 67.4245 81.1257 67.9501 82.0064C68.4757 82.88 68.8379 83.8778 69.0368 85ZM77.7805 100.384C76.7436 100.384 75.8026 100.188 74.9574 99.7976C74.1122 99.3999 73.4411 98.8281 72.9439 98.0824C72.4467 97.3295 72.1982 96.4205 72.1982 95.3551C72.1982 94.4176 72.3828 93.6577 72.7521 93.0753C73.1214 92.4858 73.6151 92.0241 74.233 91.6903C74.8509 91.3565 75.5327 91.108 76.2784 90.9446C77.0313 90.7741 77.7876 90.6392 78.5476 90.5398C79.5419 90.4119 80.348 90.3161 80.9659 90.2521C81.5909 90.1811 82.0455 90.0639 82.3295 89.9006C82.6207 89.7372 82.7663 89.4531 82.7663 89.0483V88.9631C82.7663 87.9119 82.4787 87.0952 81.9034 86.5128C81.3352 85.9304 80.4723 85.6392 79.3146 85.6392C78.1143 85.6392 77.1733 85.902 76.4915 86.4276C75.8097 86.9531 75.3303 87.5142 75.0533 88.1108L72.6669 87.2585C73.093 86.2642 73.6612 85.4901 74.3714 84.9361C75.0888 84.375 75.87 83.9844 76.7152 83.7642C77.5675 83.5369 78.4055 83.4233 79.2294 83.4233C79.755 83.4233 80.3587 83.4872 81.0405 83.6151C81.7294 83.7358 82.3935 83.9879 83.0327 84.3714C83.679 84.755 84.2152 85.3338 84.6413 86.108C85.0675 86.8821 85.2805 87.919 85.2805 89.2188V100H82.7663V97.7841H82.6385C82.468 98.1392 82.1839 98.5192 81.7862 98.924C81.3885 99.3288 80.8594 99.6733 80.1989 99.9574C79.5384 100.241 78.7322 100.384 77.7805 100.384ZM78.1641 98.125C79.1584 98.125 79.9964 97.9297 80.6783 97.5391C81.3672 97.1484 81.8857 96.6442 82.2337 96.0263C82.5888 95.4084 82.7663 94.7585 82.7663 94.0767V91.7756C82.6598 91.9034 82.4254 92.0206 82.0632 92.1271C81.7081 92.2266 81.2962 92.3153 80.8274 92.3935C80.3658 92.4645 79.9148 92.5284 79.4744 92.5852C79.0412 92.6349 78.6896 92.6776 78.4197 92.7131C77.7663 92.7983 77.1555 92.9368 76.5874 93.1286C76.0263 93.3132 75.5717 93.5937 75.2237 93.9702C74.8828 94.3395 74.7124 94.8437 74.7124 95.483C74.7124 96.3565 75.0355 97.017 75.6818 97.4645C76.3352 97.9048 77.1626 98.125 78.1641 98.125ZM89.8695 100V83.6364H92.2985V86.1932H92.5115C92.8525 85.3196 93.4029 84.6413 94.1628 84.1584C94.9228 83.6683 95.8354 83.4233 96.9007 83.4233C97.9803 83.4233 98.8787 83.6683 99.5961 84.1584C100.32 84.6413 100.885 85.3196 101.29 86.1932H101.46C101.879 85.348 102.508 84.6768 103.346 84.1797C104.184 83.6754 105.189 83.4233 106.361 83.4233C107.824 83.4233 109.021 83.8814 109.951 84.7976C110.882 85.7067 111.347 87.1236 111.347 89.0483V100H108.833V89.0483C108.833 87.8409 108.502 86.978 107.842 86.4595C107.181 85.9411 106.404 85.6818 105.509 85.6818C104.358 85.6818 103.467 86.0298 102.835 86.7259C102.203 87.4148 101.887 88.2884 101.887 89.3466V100H99.3297V88.7926C99.3297 87.8622 99.0279 87.1129 98.4242 86.5447C97.8205 85.9695 97.0428 85.6818 96.0911 85.6818C95.4377 85.6818 94.8269 85.8558 94.2587 86.2038C93.6976 86.5518 93.2431 87.0348 92.8951 87.6527C92.5542 88.2635 92.3837 88.9702 92.3837 89.7727V100H89.8695ZM115.944 106.136V83.6364H118.373V86.2358H118.671C118.856 85.9517 119.111 85.5895 119.438 85.1491C119.772 84.7017 120.248 84.304 120.866 83.956C121.491 83.6009 122.336 83.4233 123.401 83.4233C124.779 83.4233 125.993 83.7678 127.045 84.4567C128.096 85.1456 128.916 86.1222 129.506 87.3864C130.095 88.6506 130.39 90.142 130.39 91.8608C130.39 93.5938 130.095 95.0959 129.506 96.3672C128.916 97.6314 128.099 98.6115 127.055 99.3075C126.011 99.9964 124.807 100.341 123.444 100.341C122.393 100.341 121.551 100.167 120.919 99.8189C120.287 99.4638 119.8 99.0625 119.459 98.6151C119.118 98.1605 118.856 97.7841 118.671 97.4858H118.458V106.136H115.944ZM118.415 91.8182C118.415 93.054 118.596 94.1442 118.959 95.0888C119.321 96.0263 119.85 96.7614 120.546 97.294C121.242 97.8196 122.094 98.0824 123.103 98.0824C124.154 98.0824 125.031 97.8054 125.734 97.2514C126.444 96.6903 126.977 95.9375 127.332 94.9929C127.694 94.0412 127.876 92.983 127.876 91.8182C127.876 90.6676 127.698 89.6307 127.343 88.7074C126.995 87.777 126.466 87.0419 125.756 86.5021C125.052 85.9553 124.168 85.6818 123.103 85.6818C122.08 85.6818 121.221 85.9411 120.525 86.4595C119.829 86.9709 119.303 87.6882 118.948 88.6115C118.593 89.5277 118.415 90.5966 118.415 91.8182ZM144.537 93.3097V83.6364H147.052V100H144.537V97.2301H144.367C143.983 98.0611 143.387 98.7678 142.577 99.3501C141.768 99.9254 140.745 100.213 139.509 100.213C138.486 100.213 137.577 99.9893 136.782 99.5419C135.986 99.0874 135.361 98.4055 134.907 97.4964C134.452 96.5803 134.225 95.4261 134.225 94.0341V83.6364H136.739V93.8636C136.739 95.0568 137.073 96.0085 137.741 96.7188C138.415 97.429 139.275 97.7841 140.319 97.7841C140.944 97.7841 141.579 97.6243 142.226 97.3047C142.879 96.9851 143.426 96.495 143.866 95.8345C144.314 95.174 144.537 94.3324 144.537 93.3097ZM163.248 87.3011L160.989 87.9403C160.847 87.5639 160.637 87.1982 160.36 86.843C160.091 86.4808 159.721 86.1825 159.252 85.9482C158.784 85.7138 158.184 85.5966 157.452 85.5966C156.451 85.5966 155.616 85.8274 154.949 86.2891C154.288 86.7436 153.958 87.3224 153.958 88.0256C153.958 88.6506 154.185 89.1442 154.64 89.5064C155.094 89.8686 155.804 90.1705 156.77 90.4119L159.199 91.0085C160.662 91.3636 161.752 91.907 162.47 92.6385C163.187 93.3629 163.546 94.2969 163.546 95.4403C163.546 96.3778 163.276 97.2159 162.736 97.9545C162.203 98.6932 161.458 99.2756 160.499 99.7017C159.54 100.128 158.425 100.341 157.154 100.341C155.485 100.341 154.103 99.9787 153.01 99.2543C151.916 98.5298 151.223 97.4716 150.932 96.0795L153.319 95.483C153.546 96.3636 153.975 97.0241 154.608 97.4645C155.247 97.9048 156.081 98.125 157.111 98.125C158.283 98.125 159.213 97.8764 159.902 97.3793C160.598 96.875 160.946 96.2713 160.946 95.5682C160.946 95 160.748 94.5241 160.35 94.1406C159.952 93.75 159.341 93.4588 158.517 93.267L155.79 92.6278C154.292 92.2727 153.191 91.7223 152.488 90.9766C151.792 90.2237 151.444 89.2827 151.444 88.1534C151.444 87.2301 151.703 86.4134 152.221 85.7031C152.747 84.9929 153.461 84.4354 154.363 84.0305C155.272 83.6257 156.301 83.4233 157.452 83.4233C159.071 83.4233 160.343 83.7784 161.266 84.4886C162.196 85.1989 162.857 86.1364 163.248 87.3011Z" fill="#4285F4"/>
<circle cx="182.5" cy="89" r="2.5" fill="black"/>
<path d="M215.96 78.1818H218.602V92.6278C218.602 94.1193 218.251 95.451 217.548 96.6229C216.852 97.7876 215.868 98.7074 214.597 99.3821C213.325 100.05 211.834 100.384 210.122 100.384C208.411 100.384 206.919 100.05 205.648 99.3821C204.376 98.7074 203.389 97.7876 202.686 96.6229C201.99 95.451 201.642 94.1193 201.642 92.6278V78.1818H204.284V92.4148C204.284 93.4801 204.518 94.4283 204.987 95.2592C205.456 96.0831 206.124 96.733 206.99 97.2088C207.864 97.6776 208.908 97.9119 210.122 97.9119C211.337 97.9119 212.381 97.6776 213.254 97.2088C214.128 96.733 214.795 96.0831 215.257 95.2592C215.726 94.4283 215.96 93.4801 215.96 92.4148V78.1818ZM226.052 90.1562V100H223.537V83.6364H225.966V86.1932H226.18C226.563 85.3622 227.145 84.6946 227.927 84.1903C228.708 83.679 229.716 83.4233 230.952 83.4233C232.06 83.4233 233.03 83.6506 233.861 84.1051C234.692 84.5526 235.338 85.2344 235.8 86.1506C236.261 87.0597 236.492 88.2102 236.492 89.6023V100H233.978V89.7727C233.978 88.4872 233.644 87.4858 232.976 86.7685C232.309 86.044 231.393 85.6818 230.228 85.6818C229.425 85.6818 228.708 85.8558 228.076 86.2038C227.451 86.5518 226.957 87.0597 226.595 87.7273C226.233 88.3949 226.052 89.2045 226.052 90.1562ZM241.086 100V83.6364H243.6V100H241.086ZM242.365 80.9091C241.875 80.9091 241.452 80.7422 241.097 80.4084C240.749 80.0746 240.575 79.6733 240.575 79.2045C240.575 78.7358 240.749 78.3345 241.097 78.0007C241.452 77.6669 241.875 77.5 242.365 77.5C242.855 77.5 243.274 77.6669 243.622 78.0007C243.977 78.3345 244.154 78.7358 244.154 79.2045C244.154 79.6733 243.977 80.0746 243.622 80.4084C243.274 80.7422 242.855 80.9091 242.365 80.9091ZM261.586 83.6364L255.535 100H252.978L246.927 83.6364H249.654L254.171 96.6761H254.342L258.859 83.6364H261.586ZM271.18 100.341C269.603 100.341 268.243 99.9929 267.099 99.2969C265.963 98.5938 265.086 97.6136 264.468 96.3565C263.857 95.0923 263.552 93.6222 263.552 91.946C263.552 90.2699 263.857 88.7926 264.468 87.5142C265.086 86.2287 265.945 85.2273 267.046 84.5099C268.154 83.7855 269.447 83.4233 270.924 83.4233C271.776 83.4233 272.618 83.5653 273.449 83.8494C274.28 84.1335 275.036 84.5952 275.718 85.2344C276.4 85.8665 276.943 86.7045 277.348 87.7486C277.753 88.7926 277.955 90.0781 277.955 91.6051V92.6705H265.341V90.4972H275.398C275.398 89.5739 275.214 88.75 274.844 88.0256C274.482 87.3011 273.964 86.7294 273.289 86.3104C272.621 85.8913 271.833 85.6818 270.924 85.6818C269.922 85.6818 269.056 85.9304 268.324 86.4276C267.6 86.9176 267.042 87.5568 266.652 88.3452C266.261 89.1335 266.066 89.9787 266.066 90.8807V92.3295C266.066 93.5653 266.279 94.6129 266.705 95.4723C267.138 96.3246 267.738 96.9744 268.506 97.4219C269.273 97.8622 270.164 98.0824 271.18 98.0824C271.84 98.0824 272.437 97.9901 272.969 97.8054C273.509 97.6136 273.974 97.3295 274.365 96.9531C274.756 96.5696 275.057 96.0937 275.27 95.5256L277.699 96.2074C277.444 97.0312 277.014 97.7557 276.41 98.3807C275.807 98.9986 275.061 99.4815 274.173 99.8295C273.285 100.17 272.287 100.341 271.18 100.341ZM281.78 100V83.6364H284.209V86.108H284.379C284.677 85.2983 285.217 84.6413 285.998 84.1371C286.78 83.6328 287.66 83.3807 288.64 83.3807C288.825 83.3807 289.056 83.3842 289.333 83.3913C289.61 83.3984 289.819 83.4091 289.961 83.4233V85.9801C289.876 85.9588 289.681 85.9268 289.376 85.8842C289.077 85.8345 288.761 85.8097 288.427 85.8097C287.632 85.8097 286.922 85.9766 286.297 86.3104C285.679 86.6371 285.189 87.0916 284.827 87.674C284.471 88.2493 284.294 88.9062 284.294 89.6449V100H281.78ZM304.533 87.3011L302.274 87.9403C302.132 87.5639 301.923 87.1982 301.646 86.843C301.376 86.4808 301.006 86.1825 300.538 85.9482C300.069 85.7138 299.469 85.5966 298.737 85.5966C297.736 85.5966 296.901 85.8274 296.234 86.2891C295.573 86.7436 295.243 87.3224 295.243 88.0256C295.243 88.6506 295.47 89.1442 295.925 89.5064C296.379 89.8686 297.089 90.1705 298.055 90.4119L300.484 91.0085C301.947 91.3636 303.038 91.907 303.755 92.6385C304.472 93.3629 304.831 94.2969 304.831 95.4403C304.831 96.3778 304.561 97.2159 304.021 97.9545C303.489 98.6932 302.743 99.2756 301.784 99.7017C300.825 100.128 299.71 100.341 298.439 100.341C296.77 100.341 295.388 99.9787 294.295 99.2543C293.201 98.5298 292.509 97.4716 292.217 96.0795L294.604 95.483C294.831 96.3636 295.261 97.0241 295.893 97.4645C296.532 97.9048 297.366 98.125 298.396 98.125C299.568 98.125 300.499 97.8764 301.188 97.3793C301.884 96.875 302.232 96.2713 302.232 95.5682C302.232 95 302.033 94.5241 301.635 94.1406C301.237 93.75 300.626 93.4588 299.803 93.267L297.075 92.6278C295.577 92.2727 294.476 91.7223 293.773 90.9766C293.077 90.2237 292.729 89.2827 292.729 88.1534C292.729 87.2301 292.988 86.4134 293.506 85.7031C294.032 84.9929 294.746 84.4354 295.648 84.0305C296.557 83.6257 297.587 83.4233 298.737 83.4233C300.357 83.4233 301.628 83.7784 302.551 84.4886C303.482 85.1989 304.142 86.1364 304.533 87.3011ZM308.616 100V83.6364H311.13V100H308.616ZM309.894 80.9091C309.404 80.9091 308.981 80.7422 308.626 80.4084C308.278 80.0746 308.104 79.6733 308.104 79.2045C308.104 78.7358 308.278 78.3345 308.626 78.0007C308.981 77.6669 309.404 77.5 309.894 77.5C310.384 77.5 310.803 77.6669 311.151 78.0007C311.506 78.3345 311.684 78.7358 311.684 79.2045C311.684 79.6733 311.506 80.0746 311.151 80.4084C310.803 80.7422 310.384 80.9091 309.894 80.9091ZM322.851 83.6364V85.767H314.371V83.6364H322.851ZM316.843 79.7159H319.357V95.3125C319.357 96.0227 319.46 96.5554 319.666 96.9105C319.879 97.2585 320.149 97.4929 320.475 97.6136C320.809 97.7273 321.161 97.7841 321.53 97.7841C321.807 97.7841 322.034 97.7699 322.212 97.7415C322.39 97.706 322.532 97.6776 322.638 97.6562L323.15 99.9148C322.979 99.9787 322.741 100.043 322.436 100.107C322.13 100.178 321.743 100.213 321.275 100.213C320.564 100.213 319.868 100.06 319.186 99.755C318.512 99.4496 317.951 98.9844 317.503 98.3594C317.063 97.7344 316.843 96.946 316.843 95.9943V79.7159ZM331.449 100.384C330.412 100.384 329.471 100.188 328.625 99.7976C327.78 99.3999 327.109 98.8281 326.612 98.0824C326.115 97.3295 325.866 96.4205 325.866 95.3551C325.866 94.4176 326.051 93.6577 326.42 93.0753C326.789 92.4858 327.283 92.0241 327.901 91.6903C328.519 91.3565 329.201 91.108 329.946 90.9446C330.699 90.7741 331.456 90.6392 332.216 90.5398C333.21 90.4119 334.016 90.3161 334.634 90.2521C335.259 90.1811 335.713 90.0639 335.998 89.9006C336.289 89.7372 336.434 89.4531 336.434 89.0483V88.9631C336.434 87.9119 336.147 87.0952 335.571 86.5128C335.003 85.9304 334.14 85.6392 332.983 85.6392C331.782 85.6392 330.841 85.902 330.159 86.4276C329.478 86.9531 328.998 87.5142 328.721 88.1108L326.335 87.2585C326.761 86.2642 327.329 85.4901 328.039 84.9361C328.757 84.375 329.538 83.9844 330.383 83.7642C331.235 83.5369 332.074 83.4233 332.897 83.4233C333.423 83.4233 334.027 83.4872 334.708 83.6151C335.397 83.7358 336.061 83.9879 336.701 84.3714C337.347 84.755 337.883 85.3338 338.309 86.108C338.735 86.8821 338.949 87.919 338.949 89.2188V100H336.434V97.7841H336.306C336.136 98.1392 335.852 98.5192 335.454 98.924C335.056 99.3288 334.527 99.6733 333.867 99.9574C333.206 100.241 332.4 100.384 331.449 100.384ZM331.832 98.125C332.826 98.125 333.664 97.9297 334.346 97.5391C335.035 97.1484 335.554 96.6442 335.902 96.0263C336.257 95.4084 336.434 94.7585 336.434 94.0767V91.7756C336.328 91.9034 336.093 92.0206 335.731 92.1271C335.376 92.2266 334.964 92.3153 334.495 92.3935C334.034 92.4645 333.583 92.5284 333.142 92.5852C332.709 92.6349 332.358 92.6776 332.088 92.7131C331.434 92.7983 330.824 92.9368 330.255 93.1286C329.694 93.3132 329.24 93.5937 328.892 93.9702C328.551 94.3395 328.38 94.8437 328.38 95.483C328.38 96.3565 328.703 97.017 329.35 97.4645C330.003 97.9048 330.831 98.125 331.832 98.125ZM355.128 87.3011L352.87 87.9403C352.728 87.5639 352.518 87.1982 352.241 86.843C351.971 86.4808 351.602 86.1825 351.133 85.9482C350.665 85.7138 350.064 85.5966 349.333 85.5966C348.331 85.5966 347.497 85.8274 346.829 86.2891C346.169 86.7436 345.839 87.3224 345.839 88.0256C345.839 88.6506 346.066 89.1442 346.52 89.5064C346.975 89.8686 347.685 90.1705 348.651 90.4119L351.08 91.0085C352.543 91.3636 353.633 91.907 354.351 92.6385C355.068 93.3629 355.427 94.2969 355.427 95.4403C355.427 96.3778 355.157 97.2159 354.617 97.9545C354.084 98.6932 353.339 99.2756 352.38 99.7017C351.421 100.128 350.306 100.341 349.035 100.341C347.366 100.341 345.984 99.9787 344.89 99.2543C343.797 98.5298 343.104 97.4716 342.813 96.0795L345.199 95.483C345.427 96.3636 345.856 97.0241 346.488 97.4645C347.128 97.9048 347.962 98.125 348.992 98.125C350.164 98.125 351.094 97.8764 351.783 97.3793C352.479 96.875 352.827 96.2713 352.827 95.5682C352.827 95 352.628 94.5241 352.231 94.1406C351.833 93.75 351.222 93.4588 350.398 93.267L347.671 92.6278C346.172 92.2727 345.072 91.7223 344.368 90.9766C343.672 90.2237 343.324 89.2827 343.324 88.1534C343.324 87.2301 343.584 86.4134 344.102 85.7031C344.628 84.9929 345.341 84.4354 346.243 84.0305C347.153 83.6257 348.182 83.4233 349.333 83.4233C350.952 83.4233 352.224 83.7784 353.147 84.4886C354.077 85.1989 354.738 86.1364 355.128 87.3011ZM382.904 85C382.67 84.2827 382.361 83.6399 381.978 83.0717C381.601 82.4964 381.15 82.0064 380.625 81.6016C380.106 81.1967 379.517 80.8878 378.856 80.6747C378.196 80.4616 377.471 80.3551 376.683 80.3551C375.39 80.3551 374.215 80.6889 373.157 81.3565C372.098 82.0241 371.257 83.0078 370.632 84.3075C370.007 85.6072 369.694 87.2017 369.694 89.0909C369.694 90.9801 370.01 92.5746 370.642 93.8743C371.275 95.174 372.13 96.1577 373.21 96.8253C374.289 97.4929 375.504 97.8267 376.853 97.8267C378.103 97.8267 379.204 97.5604 380.156 97.0277C381.115 96.4879 381.86 95.728 382.393 94.7479C382.933 93.7607 383.203 92.5994 383.203 91.2642L384.012 91.4347H377.45V89.0909H385.76V91.4347C385.76 93.2315 385.376 94.794 384.609 96.1222C383.849 97.4503 382.798 98.4801 381.456 99.2116C380.12 99.9361 378.586 100.298 376.853 100.298C374.922 100.298 373.224 99.8438 371.761 98.9347C370.305 98.0256 369.169 96.733 368.352 95.0568C367.542 93.3807 367.137 91.392 367.137 89.0909C367.137 87.3651 367.368 85.8132 367.83 84.4354C368.299 83.0504 368.959 81.8714 369.811 80.8984C370.664 79.9254 371.672 79.1797 372.837 78.6612C374.002 78.1428 375.284 77.8835 376.683 77.8835C377.833 77.8835 378.906 78.0575 379.9 78.4055C380.902 78.7464 381.793 79.233 382.574 79.8651C383.363 80.4901 384.02 81.2393 384.545 82.1129C385.071 82.9794 385.433 83.9418 385.632 85H382.904ZM394.759 100.384C393.722 100.384 392.781 100.188 391.936 99.7976C391.091 99.3999 390.42 98.8281 389.922 98.0824C389.425 97.3295 389.177 96.4205 389.177 95.3551C389.177 94.4176 389.361 93.6577 389.731 93.0753C390.1 92.4858 390.594 92.0241 391.211 91.6903C391.829 91.3565 392.511 91.108 393.257 90.9446C394.01 90.7741 394.766 90.6392 395.526 90.5398C396.52 90.4119 397.327 90.3161 397.944 90.2521C398.569 90.1811 399.024 90.0639 399.308 89.9006C399.599 89.7372 399.745 89.4531 399.745 89.0483V88.9631C399.745 87.9119 399.457 87.0952 398.882 86.5128C398.314 85.9304 397.451 85.6392 396.293 85.6392C395.093 85.6392 394.152 85.902 393.47 86.4276C392.788 86.9531 392.309 87.5142 392.032 88.1108L389.645 87.2585C390.072 86.2642 390.64 85.4901 391.35 84.9361C392.067 84.375 392.849 83.9844 393.694 83.7642C394.546 83.5369 395.384 83.4233 396.208 83.4233C396.733 83.4233 397.337 83.4872 398.019 83.6151C398.708 83.7358 399.372 83.9879 400.011 84.3714C400.657 84.755 401.194 85.3338 401.62 86.108C402.046 86.8821 402.259 87.919 402.259 89.2188V100H399.745V97.7841H399.617C399.447 98.1392 399.162 98.5192 398.765 98.924C398.367 99.3288 397.838 99.6733 397.177 99.9574C396.517 100.241 395.711 100.384 394.759 100.384ZM395.143 98.125C396.137 98.125 396.975 97.9297 397.657 97.5391C398.346 97.1484 398.864 96.6442 399.212 96.0263C399.567 95.4084 399.745 94.7585 399.745 94.0767V91.7756C399.638 91.9034 399.404 92.0206 399.042 92.1271C398.687 92.2266 398.275 92.3153 397.806 92.3935C397.344 92.4645 396.893 92.5284 396.453 92.5852C396.02 92.6349 395.668 92.6776 395.398 92.7131C394.745 92.7983 394.134 92.9368 393.566 93.1286C393.005 93.3132 392.55 93.5937 392.202 93.9702C391.861 94.3395 391.691 94.8437 391.691 95.483C391.691 96.3565 392.014 97.017 392.66 97.4645C393.314 97.9048 394.141 98.125 395.143 98.125ZM413.027 100.341C411.663 100.341 410.46 99.9964 409.415 99.3075C408.371 98.6115 407.555 97.6314 406.965 96.3672C406.376 95.0959 406.081 93.5938 406.081 91.8608C406.081 90.142 406.376 88.6506 406.965 87.3864C407.555 86.1222 408.375 85.1456 409.426 84.4567C410.477 83.7678 411.692 83.4233 413.07 83.4233C414.135 83.4233 414.977 83.6009 415.594 83.956C416.219 84.304 416.695 84.7017 417.022 85.1491C417.356 85.5895 417.615 85.9517 417.8 86.2358H418.013V78.1818H420.527V100H418.098V97.4858H417.8C417.615 97.7841 417.352 98.1605 417.011 98.6151C416.67 99.0625 416.184 99.4638 415.552 99.8189C414.92 100.167 414.078 100.341 413.027 100.341ZM413.368 98.0824C414.376 98.0824 415.229 97.8196 415.925 97.294C416.621 96.7614 417.15 96.0263 417.512 95.0888C417.874 94.1442 418.055 93.054 418.055 91.8182C418.055 90.5966 417.878 89.5277 417.523 88.6115C417.168 87.6882 416.642 86.9709 415.946 86.4595C415.25 85.9411 414.391 85.6818 413.368 85.6818C412.303 85.6818 411.415 85.9553 410.705 86.5021C410.001 87.0419 409.472 87.777 409.117 88.7074C408.769 89.6307 408.595 90.6676 408.595 91.8182C408.595 92.983 408.773 94.0412 409.128 94.9929C409.49 95.9375 410.023 96.6903 410.726 97.2514C411.436 97.8054 412.317 98.0824 413.368 98.0824ZM425.481 83.6364H427.995V101.193C427.995 102.202 427.821 103.075 427.473 103.814C427.132 104.553 426.614 105.124 425.918 105.529C425.229 105.934 424.359 106.136 423.308 106.136C423.222 106.136 423.137 106.136 423.052 106.136C422.967 106.136 422.881 106.136 422.796 106.136V103.793C422.881 103.793 422.96 103.793 423.031 103.793C423.102 103.793 423.18 103.793 423.265 103.793C424.032 103.793 424.593 103.565 424.948 103.111C425.303 102.663 425.481 102.024 425.481 101.193V83.6364ZM426.717 80.9091C426.227 80.9091 425.804 80.7422 425.449 80.4084C425.101 80.0746 424.927 79.6733 424.927 79.2045C424.927 78.7358 425.101 78.3345 425.449 78.0007C425.804 77.6669 426.227 77.5 426.717 77.5C427.207 77.5 427.626 77.6669 427.974 78.0007C428.329 78.3345 428.506 78.7358 428.506 79.2045C428.506 79.6733 428.329 80.0746 427.974 80.4084C427.626 80.7422 427.207 80.9091 426.717 80.9091ZM437.415 100.384C436.378 100.384 435.437 100.188 434.592 99.7976C433.747 99.3999 433.076 98.8281 432.579 98.0824C432.081 97.3295 431.833 96.4205 431.833 95.3551C431.833 94.4176 432.018 93.6577 432.387 93.0753C432.756 92.4858 433.25 92.0241 433.868 91.6903C434.486 91.3565 435.167 91.108 435.913 90.9446C436.666 90.7741 437.422 90.6392 438.182 90.5398C439.177 90.4119 439.983 90.3161 440.601 90.2521C441.226 90.1811 441.68 90.0639 441.964 89.9006C442.256 89.7372 442.401 89.4531 442.401 89.0483V88.9631C442.401 87.9119 442.113 87.0952 441.538 86.5128C440.97 85.9304 440.107 85.6392 438.949 85.6392C437.749 85.6392 436.808 85.902 436.126 86.4276C435.444 86.9531 434.965 87.5142 434.688 88.1108L432.302 87.2585C432.728 86.2642 433.296 85.4901 434.006 84.9361C434.724 84.375 435.505 83.9844 436.35 83.7642C437.202 83.5369 438.04 83.4233 438.864 83.4233C439.39 83.4233 439.993 83.4872 440.675 83.6151C441.364 83.7358 442.028 83.9879 442.667 84.3714C443.314 84.755 443.85 85.3338 444.276 86.108C444.702 86.8821 444.915 87.919 444.915 89.2188V100H442.401V97.7841H442.273C442.103 98.1392 441.819 98.5192 441.421 98.924C441.023 99.3288 440.494 99.6733 439.834 99.9574C439.173 100.241 438.367 100.384 437.415 100.384ZM437.799 98.125C438.793 98.125 439.631 97.9297 440.313 97.5391C441.002 97.1484 441.52 96.6442 441.868 96.0263C442.224 95.4084 442.401 94.7585 442.401 94.0767V91.7756C442.295 91.9034 442.06 92.0206 441.698 92.1271C441.343 92.2266 440.931 92.3153 440.462 92.3935C440.001 92.4645 439.55 92.5284 439.109 92.5852C438.676 92.6349 438.324 92.6776 438.055 92.7131C437.401 92.7983 436.79 92.9368 436.222 93.1286C435.661 93.3132 435.206 93.5937 434.858 93.9702C434.518 94.3395 434.347 94.8437 434.347 95.483C434.347 96.3565 434.67 97.017 435.317 97.4645C435.97 97.9048 436.797 98.125 437.799 98.125ZM452.018 90.1562V100H449.504V78.1818H452.018V86.1932H452.232C452.615 85.348 453.19 84.6768 453.957 84.1797C454.732 83.6754 455.761 83.4233 457.047 83.4233C458.162 83.4233 459.138 83.647 459.977 84.0945C460.815 84.5348 461.464 85.2131 461.926 86.1293C462.395 87.0384 462.629 88.196 462.629 89.6023V100H460.115V89.7727C460.115 88.473 459.778 87.468 459.103 86.7578C458.435 86.0405 457.509 85.6818 456.322 85.6818C455.499 85.6818 454.76 85.8558 454.107 86.2038C453.46 86.5518 452.949 87.0597 452.572 87.7273C452.203 88.3949 452.018 89.2045 452.018 90.1562ZM476.007 78.1818H479.161L486.575 96.2926H486.831L494.246 78.1818H497.399V100H494.928V83.4233H494.715L487.896 100H485.51L478.692 83.4233H478.479V100H476.007V78.1818ZM507.171 100.384C506.134 100.384 505.193 100.188 504.348 99.7976C503.503 99.3999 502.832 98.8281 502.335 98.0824C501.837 97.3295 501.589 96.4205 501.589 95.3551C501.589 94.4176 501.773 93.6577 502.143 93.0753C502.512 92.4858 503.006 92.0241 503.624 91.6903C504.241 91.3565 504.923 91.108 505.669 90.9446C506.422 90.7741 507.178 90.6392 507.938 90.5398C508.933 90.4119 509.739 90.3161 510.357 90.2521C510.982 90.1811 511.436 90.0639 511.72 89.9006C512.011 89.7372 512.157 89.4531 512.157 89.0483V88.9631C512.157 87.9119 511.869 87.0952 511.294 86.5128C510.726 85.9304 509.863 85.6392 508.705 85.6392C507.505 85.6392 506.564 85.902 505.882 86.4276C505.2 86.9531 504.721 87.5142 504.444 88.1108L502.058 87.2585C502.484 86.2642 503.052 85.4901 503.762 84.9361C504.479 84.375 505.261 83.9844 506.106 83.7642C506.958 83.5369 507.796 83.4233 508.62 83.4233C509.146 83.4233 509.749 83.4872 510.431 83.6151C511.12 83.7358 511.784 83.9879 512.423 84.3714C513.07 84.755 513.606 85.3338 514.032 86.108C514.458 86.8821 514.671 87.919 514.671 89.2188V100H512.157V97.7841H512.029C511.859 98.1392 511.575 98.5192 511.177 98.924C510.779 99.3288 510.25 99.6733 509.589 99.9574C508.929 100.241 508.123 100.384 507.171 100.384ZM507.555 98.125C508.549 98.125 509.387 97.9297 510.069 97.5391C510.758 97.1484 511.276 96.6442 511.624 96.0263C511.979 95.4084 512.157 94.7585 512.157 94.0767V91.7756C512.05 91.9034 511.816 92.0206 511.454 92.1271C511.099 92.2266 510.687 92.3153 510.218 92.3935C509.756 92.4645 509.305 92.5284 508.865 92.5852C508.432 92.6349 508.08 92.6776 507.81 92.7131C507.157 92.7983 506.546 92.9368 505.978 93.1286C505.417 93.3132 504.962 93.5937 504.614 93.9702C504.273 94.3395 504.103 94.8437 504.103 95.483C504.103 96.3565 504.426 97.017 505.072 97.4645C505.726 97.9048 506.553 98.125 507.555 98.125ZM525.439 100.341C524.075 100.341 522.872 99.9964 521.828 99.3075C520.784 98.6115 519.967 97.6314 519.377 96.3672C518.788 95.0959 518.493 93.5938 518.493 91.8608C518.493 90.142 518.788 88.6506 519.377 87.3864C519.967 86.1222 520.787 85.1456 521.838 84.4567C522.889 83.7678 524.104 83.4233 525.482 83.4233C526.547 83.4233 527.389 83.6009 528.007 83.956C528.632 84.304 529.107 84.7017 529.434 85.1491C529.768 85.5895 530.027 85.9517 530.212 86.2358H530.425V78.1818H532.939V100H530.51V97.4858H530.212C530.027 97.7841 529.764 98.1605 529.423 98.6151C529.083 99.0625 528.596 99.4638 527.964 99.8189C527.332 100.167 526.49 100.341 525.439 100.341ZM525.78 98.0824C526.789 98.0824 527.641 97.8196 528.337 97.294C529.033 96.7614 529.562 96.0263 529.924 95.0888C530.286 94.1442 530.468 93.054 530.468 91.8182C530.468 90.5966 530.29 89.5277 529.935 88.6115C529.58 87.6882 529.054 86.9709 528.358 86.4595C527.662 85.9411 526.803 85.6818 525.78 85.6818C524.715 85.6818 523.827 85.9553 523.117 86.5021C522.414 87.0419 521.884 87.777 521.529 88.7074C521.181 89.6307 521.007 90.6676 521.007 91.8182C521.007 92.983 521.185 94.0412 521.54 94.9929C521.902 95.9375 522.435 96.6903 523.138 97.2514C523.848 97.8054 524.729 98.0824 525.78 98.0824ZM542.708 100.384C541.671 100.384 540.73 100.188 539.885 99.7976C539.04 99.3999 538.369 98.8281 537.872 98.0824C537.374 97.3295 537.126 96.4205 537.126 95.3551C537.126 94.4176 537.311 93.6577 537.68 93.0753C538.049 92.4858 538.543 92.0241 539.161 91.6903C539.779 91.3565 540.46 91.108 541.206 90.9446C541.959 90.7741 542.715 90.6392 543.475 90.5398C544.47 90.4119 545.276 90.3161 545.894 90.2521C546.519 90.1811 546.973 90.0639 547.257 89.9006C547.548 89.7372 547.694 89.4531 547.694 89.0483V88.9631C547.694 87.9119 547.406 87.0952 546.831 86.5128C546.263 85.9304 545.4 85.6392 544.242 85.6392C543.042 85.6392 542.101 85.902 541.419 86.4276C540.737 86.9531 540.258 87.5142 539.981 88.1108L537.595 87.2585C538.021 86.2642 538.589 85.4901 539.299 84.9361C540.017 84.375 540.798 83.9844 541.643 83.7642C542.495 83.5369 543.333 83.4233 544.157 83.4233C544.683 83.4233 545.286 83.4872 545.968 83.6151C546.657 83.7358 547.321 83.9879 547.96 84.3714C548.607 84.755 549.143 85.3338 549.569 86.108C549.995 86.8821 550.208 87.919 550.208 89.2188V100H547.694V97.7841H547.566C547.396 98.1392 547.112 98.5192 546.714 98.924C546.316 99.3288 545.787 99.6733 545.127 99.9574C544.466 100.241 543.66 100.384 542.708 100.384ZM543.092 98.125C544.086 98.125 544.924 97.9297 545.606 97.5391C546.295 97.1484 546.813 96.6442 547.161 96.0263C547.517 95.4084 547.694 94.7585 547.694 94.0767V91.7756C547.588 91.9034 547.353 92.0206 546.991 92.1271C546.636 92.2266 546.224 92.3153 545.755 92.3935C545.294 92.4645 544.843 92.5284 544.402 92.5852C543.969 92.6349 543.617 92.6776 543.347 92.7131C542.694 92.7983 542.083 92.9368 541.515 93.1286C540.954 93.3132 540.499 93.5937 540.151 93.9702C539.811 94.3395 539.64 94.8437 539.64 95.483C539.64 96.3565 539.963 97.017 540.61 97.4645C541.263 97.9048 542.09 98.125 543.092 98.125Z" fill="black"/>
</svg>
