<svg width="40" height="40" viewBox="0 0 40 40" fill="none" xmlns="http://www.w3.org/2000/svg">
<g clip-path="url(#clip0_117_11536)">
<path d="M33.9711 13.2401L26.7594 6.02843C26.268 5.53741 25.473 5.53702 24.9816 6.02757L6.40723 24.56L8.18418 26.3412L25.8692 8.69592L31.304 14.1311L13.6592 31.8158L15.4399 33.5928L33.9723 15.0179C34.4625 14.5265 34.4621 13.7307 33.9711 13.2401Z" fill="#2F80ED"/>
<path d="M36.1099 5.65158L34.349 3.89057C33.9389 3.4805 33.3024 3.40378 32.8068 3.70479L26.7272 7.39455L28.0324 9.54509L33.268 6.36729L33.6328 6.73244L30.4554 11.9681L32.606 13.2733L36.2957 7.19361C36.5967 6.69815 36.52 6.06119 36.1099 5.65158Z" fill="#2F80ED"/>
<path d="M17.7868 34.1632L5.83709 22.2135C5.34607 21.7221 4.54943 21.7221 4.0585 22.2135C3.56709 22.7045 3.56709 23.5012 4.0585 23.9921L16.0082 35.9418C16.2535 36.1875 16.5754 36.3103 16.8975 36.3103C17.219 36.3103 17.5415 36.1874 17.7868 35.9418C18.2782 35.4508 18.2782 34.6542 17.7868 34.1632Z" fill="#2F80ED"/>
<path d="M17.4726 23.1787L5.73364 34.9609L7.51549 36.7362L19.2545 24.954L17.4726 23.1787Z" fill="#2F80ED"/>
<path d="M15.0011 20.707L3.26208 32.4893L5.04393 34.2646L16.7829 22.4823L15.0011 20.707Z" fill="#2F80ED"/>
<path d="M10.4491 37.853L2.1472 29.5507C1.65579 29.0597 0.859154 29.0589 0.368139 29.5507C-0.122876 30.0417 -0.122876 30.8379 0.368139 31.3293L8.67 39.6316C8.9157 39.8773 9.23773 40.0001 9.55969 40.0001C9.88125 40.0001 10.2037 39.8772 10.449 39.6316C10.9401 39.1407 10.9401 38.3444 10.4491 37.853Z" fill="#2F80ED"/>
<path d="M39.6315 0.368798C39.1401 -0.122607 38.3443 -0.122607 37.8529 0.368798L33.4503 4.77129C32.9589 5.2623 32.9589 6.05894 33.4503 6.54988C33.696 6.79558 34.0176 6.9184 34.3396 6.9184C34.6617 6.9184 34.9836 6.7955 35.2289 6.54988L39.6314 2.14739C40.1229 1.65645 40.1229 0.859813 39.6315 0.368798Z" fill="#2F80ED"/>
<path d="M14.5997 18.3132L12.8208 20.092L19.9065 27.1778L21.6854 25.3989L14.5997 18.3132Z" fill="#2F80ED"/>
</g>
<defs>
<clipPath id="clip0_117_11536">
<rect width="40" height="40" fill="white"/>
</clipPath>
</defs>
</svg>
